<?xml version="1.0" encoding="UTF-8" standalone="no"?><!DOCTYPE svg PUBLIC "-//W3C//DTD SVG 1.1//EN" "http://www.w3.org/Graphics/SVG/1.1/DTD/svg11.dtd"><svg width="100%" height="100%" viewBox="0 0 459 459" version="1.1" xmlns="http://www.w3.org/2000/svg" xmlns:xlink="http://www.w3.org/1999/xlink" xml:space="preserve" xmlns:serif="http://www.serif.com/" style="fill-rule:evenodd;clip-rule:evenodd;stroke-linejoin:round;stroke-miterlimit:2;"><rect id="Heart" x="0" y="-0" width="458.333" height="458.333" style="fill:none;"/><path d="M40.605,248.693c-52.07,-52.07 -52.071,-136.492 -0.001,-188.562c52.07,-52.07 136.493,-52.07 188.563,0c52.07,-52.07 136.492,-52.07 188.562,0c52.07,52.07 52.069,136.492 -0.001,188.562l-188.561,188.562l-188.562,-188.562Z" style="fill:#fff;fill-opacity:0.5;"/><path d="M40.605,248.693c-52.07,-52.07 -52.071,-136.492 -0.001,-188.562c52.07,-52.07 136.493,-52.07 188.563,0c52.07,-52.07 136.492,-52.07 188.562,0c52.07,52.07 52.069,136.492 -0.001,188.562l-188.561,188.562l-188.562,-188.562Zm14.425,-14.425l174.137,174.136l174.136,-174.136c44.103,-44.103 44.104,-115.609 0.001,-159.712c-44.103,-44.103 -115.609,-44.103 -159.712,0l-14.425,14.425l-14.425,-14.425c-44.104,-44.103 -115.61,-44.103 -159.713,0c-44.103,44.103 -44.102,115.609 0.001,159.712Z" style="fill:#fff;"/></svg>